# xmcd
#
# Track frame offsets:
# 150
# 27836
# 82659
# 117359
#
# Disc length: 2367 seconds
#
# Revision: 0
# Processed by: cddbd v1.4PL0 Copyright (c) Steve Scherf et al.
# Submitted via: Audion 3.0.2 (http://www.panic.com/audion/)
#
DISCID=21093d04
DTITLE=Niemen - Strange Is This World
DYEAR=1900
DGENRE=
TTITLE0=Strange Is This World
TTITLE1=Why Did You Stop Loving Me
TTITLE2=I've Been Loving You Too Long
TTITLE3=A Song For The Deceased
EXTD=
EXTT0=
EXTT1=
EXTT2=
EXTT3=
PLAYORDER=
